<svg height="512pt" viewBox="-30 0 512 512.00024" width="512pt" xmlns="http://www.w3.org/2000/svg"><path d="m351.691406 271.09375c-8.785156-6.691406-21.335937-4.996094-28.027344 3.792969-11.070312 14.535156-24.144531 26.804687-36.789062 38.667969-19.484375 18.285156-38.121094 35.785156-45.484375 58.445312h-91.703125c-7.363281-22.660156-26-40.160156-45.480469-58.445312-31.566406-29.621094-64.203125-60.253907-64.203125-120.289063 0-40.671875 16.089844-79.046875 45.304688-108.046875 29.402344-29.1875 68.230468-45.21875 109.445312-45.21875.390625 0 .785156 0 1.175782.003906h.152343c10.976563 0 19.914063-8.855468 19.996094-19.851562.082031-11.046875-8.808594-20.0664065-19.851563-20.14843775-52.339843-.37890625-101.792968 19.79687475-139.101562 56.82812475-36.835938 36.566407-57.125 85.019531-57.125 136.4375 0 77.351563 44.40625 119.023438 76.832031 149.453125 22.425781 21.046875 36.167969 34.734375 36.167969 50.277344v59c0 33.085938 26.917969 60 60 60h45c33.085938 0 60-26.914062 60-60v-57.472656c.039062-.503906.078125-1.011719.078125-1.527344 0-15.542969 13.742187-29.230469 36.167969-50.277344 13.191406-12.378906 28.148437-26.414062 41.234375-43.597656 6.695312-8.789062 4.996093-21.335938-3.789063-28.03125zm-133.691406 200.90625h-45c-11.027344 0-20-8.972656-20-20v-40h85v40c0 11.027344-8.96875 20-20 20zm-46.054688-350.820312c-31.664062 9.859374-52.941406 38.722656-52.941406 71.820312 0 11.046875-8.953125 20-20 20s-20-8.953125-20-20c0-50.707031 32.574219-94.917969 81.054688-110.011719 10.546875-3.28125 21.757812 2.605469 25.039062 13.152344s-2.605468 21.757813-13.152344 25.039063zm271.75 8.695312-19.246093-13.871094c.039062-1 .058593-2.003906.058593-3.003906 0-1.210938-.039062-2.425781-.09375-3.636719-.019531-.398437-.042968-.792969-.066406-1.191406-.023437-.378906-.035156-.757813-.0625-1.132813l19.855469-15.167968c7.824219-5.972656 10.136719-16.75 5.453125-25.410156l-9-16.636719c-4.707031-8.707031-15.074219-12.65625-24.378906-9.296875l-23.644532 8.53125c-2.972656-2.238282-6.105468-4.238282-9.351562-6.039063-.296875-.160156-.585938-.328125-.882812-.488281-.808594-.433594-1.625-.847656-2.445313-1.253906-.441406-.21875-.878906-.433594-1.324219-.644532-.375-.175781-.746094-.375-1.125-.546874l-4.253906-23.628907c-1.714844-9.527343-10.003906-16.457031-19.683594-16.457031h-19c-9.972656 0-18.421875 7.347656-19.804687 17.226562l-3.203125 22.878907c-5.890625 2.667969-11.425782 6.039062-16.511719 10.050781l-23.207031-7.246094c-9.347656-2.917968-19.433594 1.359375-23.832032 10.109375l-8.8125 17.535157c-4.496093 8.941406-1.6875 19.832031 6.570313 25.484374l18.902344 12.941407c-.0625 1.332031-.101563 2.671875-.101563 4.019531 0 1.222656.039063 2.445312.09375 3.667969.019532.40625.046875.8125.070313 1.21875.027343.425781.042969.851562.074219 1.277343l-19.160157 15.179688c-7.851562 6.222656-9.890625 17.292969-4.769531 25.902344l9.375 15.761718c4.898438 8.230469 14.945312 11.835938 23.957031 8.59375l21.972657-7.898437c4.792968 3.644531 9.972656 6.734375 15.449218 9.210937l4.253906 23.628907c1.714844 9.523437 10.003907 16.457031 19.683594 16.457031h18c9.828125 0 18.195313-7.140625 19.75-16.839844l3.683594-23.011718c6.6875-2.960938 12.925781-6.828126 18.570312-11.515626l22.734376 6.726563c9.28125 2.746094 19.195312-1.550781 23.542968-10.195313l8.085938-16.082031c4.410156-8.78125 1.792968-19.464843-6.175782-25.207031zm-139.125-19.089844c.003907-.09375.015626-.183594.019532-.277344.042968-.664062.097656-1.328124.175781-1.992187.003906-.058594.011719-.117187.019531-.175781.082032-.699219.183594-1.398438.304688-2.097656.003906-.039063.011718-.082032.019531-.121094.121094-.691406.261719-1.382813.417969-2.070313 1.671875-7.289062 5.339844-13.824219 10.398437-18.996093.136719-.140626.273438-.285157.414063-.421876.398437-.398437.804687-.785156 1.21875-1.164062.09375-.085938.191406-.171875.289062-.253906.832032-.746094 1.691406-1.460938 2.585938-2.132813.074218-.058593.144531-.113281.21875-.167969.492187-.367187.992187-.726562 1.503906-1.070312v-.003906c.988281-.664063 2.007812-1.285156 3.054688-1.863282.121093-.066406.242187-.136718.363281-.203124.5-.269532 1.007812-.53125 1.519531-.777344.167969-.082032.339844-.15625.507812-.238282.8125-.378906 1.636719-.726562 2.472657-1.050781.34375-.136719.6875-.269531 1.035156-.390625.398437-.140625.796875-.277344 1.203125-.40625.554688-.179687 1.117188-.34375 1.679688-.496094 3.351562-.914062 6.875-1.410156 10.511718-1.410156 3.710938 0 7.296875.515625 10.707032 1.464844.566406.15625 1.125.324219 1.683593.507812.316407.101563.632813.207032.949219.320313.496094.175781.984375.363281 1.472656.558594.425782.171875.847656.347656 1.261719.53125.503906.21875 1 .449219 1.492187.6875.34375.167969.679688.34375 1.015626.519531.394531.207031.78125.425781 1.171874.648438.308594.175781.621094.347656.925782.53125.609375.371093 1.210937.757812 1.800781 1.160156.277344.191406.546875.386718.816406.582031.414063.296875.820313.601563 1.222657.914063.242187.191406.488281.375.726562.570312.589844.484375 1.167969.980469 1.734375 1.5.167969.148438.324219.308594.488281.464844.457032.429687.902344.871094 1.335938 1.328125 4.851562 5.039062 8.394531 11.339843 10.082031 18.355469.136719.574218.265625 1.152343.375 1.730468.046875.222656.082031.449219.125.675782.09375.542968.175781 1.082031.25 1.625.03125.234374.0625.46875.089844.707031.066406.558593.113281 1.117187.15625 1.679687.015625.210938.035156.421875.046875.636719.042968.765625.070312 1.53125.070312 2.300781 0 1.378906-.070312 2.765625-.210937 4.140625-.007813.058594-.019531.117188-.023438.175781-.066406.617188-.144531 1.234376-.242187 1.847657-.035156.230469-.082032.460937-.121094.691406-.074219.429687-.148438.855469-.234375 1.28125-1.429687 6.882813-4.636719 13.117187-9.113281 18.214844-.578125.660156-1.171875 1.304687-1.785156 1.917969-.132813.136718-.277344.265624-.414063.398437-.480469.46875-.976563.921875-1.476563 1.363281-.269531.234375-.53125.46875-.804687.695313-.554687.464843-1.125.914062-1.703125 1.347656-.355469.265625-.722656.519531-1.085938.773437-.324218.222657-.648437.441407-.972656.65625-.589844.382813-1.191406.753907-1.800781 1.105469-.375.21875-.75.4375-1.132813.640625-.398437.214844-.804687.421875-1.210937.625-.445313.214844-.890625.425782-1.34375.625-.460937.210938-.929687.410156-1.402344.597656-.578125.234376-1.164062.457032-1.753906.664063-.28125.097656-.566406.195313-.851563.289063-.816406.261718-1.644531.507812-2.484374.71875-3.144532.800781-6.4375 1.226562-9.828126 1.226562-3.726562 0-7.324218-.519531-10.746093-1.476562-.554688-.152344-1.101563-.316407-1.644531-.496094-.332032-.109375-.664063-.21875-.996094-.335938-.472656-.171875-.941406-.351562-1.410156-.539062-.523438-.210938-1.042969-.429688-1.554688-.660156-.40625-.183594-.8125-.367188-1.214844-.5625-.382812-.1875-.761718-.386719-1.136718-.585938-.335938-.175781-.664063-.363281-.992188-.546875-.554688-.316406-1.101562-.644531-1.636719-.984375-.386719-.242188-.773437-.488281-1.148437-.746094-.34375-.234375-.683594-.476562-1.019532-.722656-.332031-.242188-.660156-.492188-.988281-.746094-.300781-.234375-.609375-.46875-.90625-.710937-.546875-.453125-1.082031-.917969-1.605469-1.398438-.257812-.234375-.503906-.480469-.753906-.71875-.363281-.351562-.714844-.707031-1.066406-1.070312-4.867188-5.0625-8.414062-11.394531-10.089844-18.449219-.128906-.539062-.25-1.078125-.355468-1.625-.046876-.238281-.085938-.476562-.128907-.714844-.089843-.527344-.171875-1.058594-.242187-1.589844-.03125-.238281-.066406-.476562-.09375-.71875-.0625-.554687-.109375-1.109374-.152344-1.667968-.015625-.210938-.035156-.421875-.050781-.636719-.042969-.761719-.066407-1.53125-.066407-2.296875-.003906-.738281.019532-1.476562.0625-2.214844zm-169.570312 126.214844c11.046875 0 20 8.953125 20 20s-8.953125 20-20 20c-11.042969 0-20-8.953125-20-20s8.957031-20 20-20zm0 0"/></svg>