<svg id="Capa_1" enable-background="new 0 0 512.002 512.002" height="512" viewBox="0 0 512.002 512.002" width="512" xmlns="http://www.w3.org/2000/svg"><g><path d="m497.001 482.002h-32.92v-324.477c0-8.284-6.716-15-15-15h-79.809c-8.284 0-15 6.716-15 15v324.477h-34.38v-273.602c0-8.284-6.716-15-15-15h-79.809c-8.284 0-15 6.716-15 15v273.602h-34.38v-232.902c0-8.284-6.716-15-15-15h-79.807c-8.284 0-15 6.716-15 15v232.901h-35.895v-467c0-8.284-6.716-15-15-15s-15 6.716-15 15v482c0 8.284 6.716 15 15 15h482c8.284 0 15-6.716 15-15s-6.716-14.999-15-14.999zm-112.729-309.477h49.809v309.477h-49.809zm-144.188 50.875h49.809v258.602h-49.809zm-144.188 40.7h49.808v217.901h-49.808z"/><path d="m80.886 151.864c1.236 0 2.494-.154 3.747-.477l332.948-85.627-8.924 15.019c-4.231 7.121-1.889 16.325 5.233 20.558 2.402 1.428 5.042 2.106 7.647 2.106 5.118 0 10.105-2.62 12.91-7.34l27.503-46.284c2.047-3.444 2.63-7.565 1.62-11.443-1.01-3.877-3.529-7.189-6.997-9.198l-46.878-27.156c-7.168-4.151-16.345-1.707-20.498 5.461-4.152 7.168-1.708 16.346 5.461 20.498l15.18 8.794-332.678 85.558c-8.023 2.063-12.854 10.24-10.791 18.264 1.741 6.77 7.835 11.267 14.517 11.267z"/></g></svg>