<?xml version="1.0" ?><svg viewBox="0 0 24 24" xmlns="http://www.w3.org/2000/svg"><title/><g id="growth"><path d="M21.5,21H20V9.5a.5.5,0,0,0-.5-.5h-3a.5.5,0,0,0-.5.5V21H14V13.5a.5.5,0,0,0-.5-.5h-3a.5.5,0,0,0-.5.5V21H8V14.5a.5.5,0,0,0-.5-.5h-3a.5.5,0,0,0-.5.5V21H2.5a.5.5,0,0,0,0,1h19a.5.5,0,0,0,0-1ZM7,21H5V15H7Zm6,0H11V14h2Zm6,0H17V10h2Z"/><path d="M2.5,13a.47.47,0,0,0,.35-.15l4.7-4.69L11.2,10.9a.49.49,0,0,0,.65-.05L19,3.71V5.5a.5.5,0,0,0,1,0v-3a.41.41,0,0,0,0-.19A.51.51,0,0,0,19.69,2a.41.41,0,0,0-.19,0h-3a.5.5,0,0,0,0,1h1.79L11.45,9.84,7.8,7.1a.49.49,0,0,0-.65.05l-5,5a.48.48,0,0,0,0,.7A.47.47,0,0,0,2.5,13Z"/></g></svg>