<?xml version="1.0" encoding="iso-8859-1"?>
<!-- Generator: Adobe Illustrator 19.0.0, SVG Export Plug-In . SVG Version: 6.00 Build 0)  -->
<svg version="1.1" id="Capa_1" xmlns="http://www.w3.org/2000/svg" xmlns:xlink="http://www.w3.org/1999/xlink" x="0px" y="0px"
	 viewBox="0 0 512 512" style="enable-background:new 0 0 512 512;" xml:space="preserve">
<g>
	<g>
		<path d="M436,0c-24.813,0-45,20.187-45,45c0,10.073,3.327,19.384,8.94,26.892l-73.193,79.415C323.301,150.459,319.704,150,316,150
			c-9.213,0-17.784,2.787-24.925,7.556l-52.132-39.099C240.278,114.206,241,109.686,241,105c0-24.813-20.187-45-45-45
			s-45,20.187-45,45c0,4.686,0.722,9.206,2.057,13.457l-52.132,39.099C93.784,152.787,85.213,150,76,150c-24.813,0-45,20.187-45,45
			s20.187,45,45,45s45-20.187,45-45c0-4.686-0.722-9.206-2.057-13.457l52.132-39.099C178.216,147.213,186.787,150,196,150
			s17.784-2.787,24.925-7.556l52.132,39.099C271.722,185.794,271,190.314,271,195c0,24.813,20.187,45,45,45s45-20.187,45-45
			c0-10.073-3.327-19.384-8.94-26.892l73.193-79.415C428.699,89.541,432.296,90,436,90c24.813,0,45-20.187,45-45S460.813,0,436,0z
			 M76,210c-8.271,0-15-6.729-15-15s6.729-15,15-15s15,6.729,15,15S84.271,210,76,210z M196,120c-8.271,0-15-6.729-15-15
			s6.729-15,15-15s15,6.729,15,15S204.271,120,196,120z M316,210c-8.271,0-15-6.729-15-15s6.729-15,15-15s15,6.729,15,15
			S324.271,210,316,210z M436,60c-8.271,0-15-6.729-15-15s6.729-15,15-15s15,6.729,15,15S444.271,60,436,60z"/>
	</g>
</g>
<g>
	<g>
		<path d="M497,482h-15V195c0-8.284-6.716-15-15-15h-61c-8.284,0-15,6.716-15,15v287h-30V315c0-8.284-6.716-15-15-15h-60
			c-8.284,0-15,6.716-15,15v167h-30V255c0-8.284-6.716-15-15-15h-60c-8.284,0-15,6.716-15,15v227h-30V345c0-8.284-6.716-15-15-15H45
			c-8.284,0-15,6.716-15,15v137H15c-8.284,0-15,6.716-15,15s6.716,15,15,15c14.676,0,457.513,0,482,0c8.284,0,15-6.716,15-15
			S505.284,482,497,482z M91,482H60V360h31V482z M211,482h-30V270h30V482z M331,482h-30V330h30V482z M452,482h-31V210h31V482z"/>
	</g>
</g>
<g>
</g>
<g>
</g>
<g>
</g>
<g>
</g>
<g>
</g>
<g>
</g>
<g>
</g>
<g>
</g>
<g>
</g>
<g>
</g>
<g>
</g>
<g>
</g>
<g>
</g>
<g>
</g>
<g>
</g>
</svg>
