<svg id="Layer_1" enable-background="new 0 0 512 512" height="512" viewBox="0 0 512 512" width="512" xmlns="http://www.w3.org/2000/svg"><path d="m507.607 351.689-28.283-28.284c6.221-33.829-4.471-68.932-28.933-93.394l-5.781-5.781 61.993-61.943c5.86-5.855 5.864-15.353.008-21.213s-15.353-5.864-21.213-.009l-62.002 61.952-96.711-96.489 80.922-80.922c5.858-5.858 5.858-15.355 0-21.213-5.857-5.858-15.355-5.858-21.213 0l-87.75 87.75c-1.761-.206-3.542-.323-5.343-.323-12.043 0-23.344 4.668-31.819 13.144-3.642 3.642-6.522 7.758-8.651 12.153l-112.725-112.723c-5.857-5.858-15.355-5.858-21.213 0s-5.858 15.355 0 21.213l81.401 81.401c-4.601 2.153-8.912 5.123-12.707 8.917-3.838 3.838-6.84 8.225-8.999 12.922-7.596-5.483-16.713-8.442-26.302-8.442-12.043 0-23.343 4.668-31.819 13.144-15.728 15.727-17.357 40.296-4.89 57.855-4.392 2.138-8.486 5.018-12.082 8.613-3.651 3.651-6.59 7.827-8.759 12.36l-69.131-69.131c-5.858-5.858-15.355-5.858-21.213 0s-5.858 15.355 0 21.213l110.92 111.015-110.918 110.92c-5.858 5.858-5.858 15.355 0 21.213 2.928 2.929 6.767 4.393 10.606 4.393s7.678-1.464 10.606-4.394l110.92-110.92 14.049 14.049c-4.497 2.142-8.712 5.064-12.431 8.782-8.476 8.476-13.145 19.777-13.145 31.82s4.668 23.344 13.144 31.82l52.534 52.534-50.803 50.618c-5.868 5.847-5.886 15.345-.039 21.213 2.931 2.942 6.778 4.413 10.626 4.413 3.83 0 7.66-1.458 10.587-4.374l50.842-50.657 21.713 21.712c14.426 14.426 33.374 21.639 52.324 21.639 15.477 0 30.953-4.818 43.968-14.442l21.793 21.792c2.929 2.929 6.768 4.394 10.606 4.394s7.678-1.464 10.606-4.394c5.858-5.858 5.858-15.355 0-21.213 0 0-31.361-31.361-31.37-31.37-3.049-3.049-7.34-4.654-11.641-4.357-4.906.338-9.458 3.348-12.848 6.737-17.156 17.155-45.07 17.155-62.226 0l-95.46-95.459c-2.81-2.81-4.357-6.577-4.357-10.607s1.547-7.797 4.357-10.607c5.847-5.846 15.359-5.848 21.208-.005l28.289 28.289c2.929 2.929 6.768 4.394 10.606 4.394s7.678-1.464 10.606-4.394c5.858-5.858 5.858-15.355 0-21.213l-105.354-105.356c-2.81-2.81-4.357-6.577-4.357-10.607s1.547-7.796 4.357-10.606c4.594-4.595 11.635-5.662 17.403-2.745.498.714 63.208 63.555 63.208 63.555 2.929 2.929 6.768 4.394 10.606 4.394s7.678-1.464 10.606-4.394c5.858-5.858 5.858-15.355 0-21.213l-84.854-84.853c-2.81-2.81-4.357-6.577-4.357-10.606 0-4.03 1.547-7.797 4.357-10.607s6.577-4.357 10.606-4.357c4.03 0 7.797 1.547 10.607 4.357l84.853 84.853c2.929 2.929 6.767 4.394 10.606 4.394 3.838 0 7.678-1.465 10.606-4.394 5.858-5.857 5.858-15.355 0-21.213l-61.078-61.078c-4.92-5.917-4.546-14.719.92-20.185 5.85-5.849 15.366-5.848 21.214 0l60.159 60.05c2.929 2.929 6.768 4.394 10.606 4.394s7.678-1.464 10.606-4.394c5.858-5.858 5.858-15.355 0-21.213l-29.696-29.696c-4.82-5.886-4.486-14.611 1.005-20.101 2.81-2.81 6.577-4.357 10.606-4.357s7.796 1.547 10.606 4.357l125.27 125.047c18.972 18.973 26.336 46.938 19.22 72.983-1.42 5.195.055 10.752 3.863 14.561l34.133 34.134c2.929 2.929 6.767 4.394 10.606 4.394 3.838 0 7.678-1.465 10.606-4.394 5.861-5.859 5.861-15.357.004-21.215z"/></svg>